<?xml version="1.0" encoding="UTF-8"?>
<svg xmlns="http://www.w3.org/2000/svg" xmlns:xlink="http://www.w3.org/1999/xlink" viewBox="0 0 100 100" width="100px" height="100px">
<g id="surface49962299">
<path style=" stroke:none;fill-rule:nonzero;fill:rgb(60.784316%,60.784316%,69.411767%);fill-opacity:1;" d="M 87.214844 56.710938 C 88.351562 54.554688 89 52.105469 89 49.5 C 89 42.878906 84.839844 37.242188 79 35.023438 C 79 35.015625 79 35.007812 79 35 C 79 23.402344 69.597656 14 58 14 C 48.214844 14 40.019531 20.699219 37.6875 29.757812 C 36.210938 29.273438 34.636719 29 33 29 C 25.308594 29 18.976562 34.792969 18.109375 42.253906 C 12.90625 43.351562 9 47.96875 9 53.5 C 9 59.851562 14.148438 65 20.5 65 C 20.675781 65 20.851562 64.988281 21.027344 64.976562 C 21.023438 65.152344 21 65.324219 21 65.5 C 21 76.820312 30.179688 86 41.5 86 C 47.9375 86 53.675781 83.027344 57.433594 78.386719 C 59.613281 80.609375 62.640625 82 66 82 C 70.648438 82 74.675781 79.351562 76.664062 75.480469 C 77.71875 75.816406 78.835938 76 80 76 C 86.074219 76 91 71.074219 91 65 C 91 61.6875 89.53125 58.726562 87.214844 56.710938 Z M 87.214844 56.710938 "/>
<path style=" stroke:none;fill-rule:nonzero;fill:rgb(97.254902%,96.862745%,95.294118%);fill-opacity:1;" d="M 15.5 51 L 5.5 51 C 5.222656 51 5 50.777344 5 50.5 C 5 50.222656 5.222656 50 5.5 50 L 15.5 50 C 15.777344 50 16 50.222656 16 50.5 C 16 50.777344 15.777344 51 15.5 51 Z M 15.5 51 "/>
<path style=" stroke:none;fill-rule:nonzero;fill:rgb(97.254902%,96.862745%,95.294118%);fill-opacity:1;" d="M 18.5 51 L 17.5 51 C 17.222656 51 17 50.777344 17 50.5 C 17 50.222656 17.222656 50 17.5 50 L 18.5 50 C 18.777344 50 19 50.222656 19 50.5 C 19 50.777344 18.777344 51 18.5 51 Z M 18.5 51 "/>
<path style=" stroke:none;fill-rule:nonzero;fill:rgb(97.254902%,96.862745%,95.294118%);fill-opacity:1;" d="M 23.492188 53 L 14.5 53 C 14.222656 53 14 52.777344 14 52.5 C 14 52.222656 14.222656 52 14.5 52 L 23.492188 52 C 23.765625 52 23.992188 52.222656 23.992188 52.5 C 23.992188 52.777344 23.765625 53 23.492188 53 Z M 23.492188 53 "/>
<path style=" stroke:none;fill-rule:nonzero;fill:rgb(97.254902%,96.862745%,95.294118%);fill-opacity:1;" d="M 12.5 53 L 11.5 53 C 11.222656 53 11 52.777344 11 52.5 C 11 52.222656 11.222656 52 11.5 52 L 12.5 52 C 12.777344 52 13 52.222656 13 52.5 C 13 52.777344 12.777344 53 12.5 53 Z M 12.5 53 "/>
<path style=" stroke:none;fill-rule:nonzero;fill:rgb(97.254902%,96.862745%,95.294118%);fill-opacity:1;" d="M 9.5 53 L 7.5 53 C 7.222656 53 7 52.777344 7 52.5 C 7 52.222656 7.222656 52 7.5 52 L 9.5 52 C 9.777344 52 10 52.222656 10 52.5 C 10 52.777344 9.777344 53 9.5 53 Z M 9.5 53 "/>
<path style=" stroke:none;fill-rule:nonzero;fill:rgb(97.254902%,96.862745%,95.294118%);fill-opacity:1;" d="M 15.5 55 L 13.5 55 C 13.222656 55 13 54.777344 13 54.5 C 13 54.222656 13.222656 54 13.5 54 L 15.5 54 C 15.777344 54 16 54.222656 16 54.5 C 16 54.777344 15.777344 55 15.5 55 Z M 15.5 55 "/>
<path style=" stroke:none;fill-rule:nonzero;fill:rgb(97.254902%,96.862745%,95.294118%);fill-opacity:1;" d="M 18.5 46 C 18.324219 46 17.675781 46 17.5 46 C 17.222656 46 17 46.222656 17 46.5 C 17 46.777344 17.222656 47 17.5 47 C 17.675781 47 18.324219 47 18.5 47 C 18.777344 47 19 46.777344 19 46.5 C 19 46.222656 18.777344 46 18.5 46 Z M 18.5 46 "/>
<path style=" stroke:none;fill-rule:nonzero;fill:rgb(97.254902%,96.862745%,95.294118%);fill-opacity:1;" d="M 18.5 48 C 18.324219 48 13.675781 48 13.5 48 C 13.222656 48 13 48.222656 13 48.5 C 13 48.777344 13.222656 49 13.5 49 C 13.675781 49 18.324219 49 18.5 49 C 18.777344 49 19 48.777344 19 48.5 C 19 48.222656 18.777344 48 18.5 48 Z M 18.5 48 "/>
<path style=" stroke:none;fill-rule:nonzero;fill:rgb(97.254902%,96.862745%,95.294118%);fill-opacity:1;" d="M 23.5 50 C 23.324219 50 20.675781 50 20.5 50 C 20.222656 50 20 50.222656 20 50.5 C 20 50.777344 20.222656 51 20.5 51 C 20.675781 51 23.324219 51 23.5 51 C 23.777344 51 24 50.777344 24 50.5 C 24 50.222656 23.777344 50 23.5 50 Z M 23.5 50 "/>
<path style=" stroke:none;fill-rule:nonzero;fill:rgb(97.254902%,96.862745%,95.294118%);fill-opacity:1;" d="M 72.5 24 L 62.5 24 C 62.222656 24 62 23.777344 62 23.5 C 62 23.222656 62.222656 23 62.5 23 L 72.5 23 C 72.777344 23 73 23.222656 73 23.5 C 73 23.777344 72.777344 24 72.5 24 Z M 72.5 24 "/>
<path style=" stroke:none;fill-rule:nonzero;fill:rgb(97.254902%,96.862745%,95.294118%);fill-opacity:1;" d="M 76.5 24 L 74.5 24 C 74.222656 24 74 23.777344 74 23.5 C 74 23.222656 74.222656 23 74.5 23 L 76.5 23 C 76.777344 23 77 23.222656 77 23.5 C 77 23.777344 76.777344 24 76.5 24 Z M 76.5 24 "/>
<path style=" stroke:none;fill-rule:nonzero;fill:rgb(97.254902%,96.862745%,95.294118%);fill-opacity:1;" d="M 81.5 26 L 71.5 26 C 71.222656 26 71 25.777344 71 25.5 C 71 25.222656 71.222656 25 71.5 25 L 81.5 25 C 81.777344 25 82 25.222656 82 25.5 C 82 25.777344 81.777344 26 81.5 26 Z M 81.5 26 "/>
<path style=" stroke:none;fill-rule:nonzero;fill:rgb(97.254902%,96.862745%,95.294118%);fill-opacity:1;" d="M 69.5 26 L 68.5 26 C 68.222656 26 68 25.777344 68 25.5 C 68 25.222656 68.222656 25 68.5 25 L 69.5 25 C 69.777344 25 70 25.222656 70 25.5 C 70 25.777344 69.777344 26 69.5 26 Z M 69.5 26 "/>
<path style=" stroke:none;fill-rule:nonzero;fill:rgb(97.254902%,96.862745%,95.294118%);fill-opacity:1;" d="M 66.46875 26 L 64.5 26 C 64.222656 26 64 25.777344 64 25.5 C 64 25.222656 64.222656 25 64.5 25 L 66.46875 25 C 66.746094 25 66.96875 25.222656 66.96875 25.5 C 66.96875 25.777344 66.746094 26 66.46875 26 Z M 66.46875 26 "/>
<path style=" stroke:none;fill-rule:nonzero;fill:rgb(97.254902%,96.862745%,95.294118%);fill-opacity:1;" d="M 75.5 22 L 70.5 22 C 70.222656 22 70 21.777344 70 21.5 C 70 21.222656 70.222656 21 70.5 21 L 75.5 21 C 75.777344 21 76 21.222656 76 21.5 C 76 21.777344 75.777344 22 75.5 22 Z M 75.5 22 "/>
<path style=" stroke:none;fill-rule:nonzero;fill:rgb(97.254902%,96.862745%,95.294118%);fill-opacity:1;" d="M 72.5 28 L 70.5 28 C 70.222656 28 70 27.777344 70 27.5 C 70 27.222656 70.222656 27 70.5 27 L 72.5 27 C 72.777344 27 73 27.222656 73 27.5 C 73 27.777344 72.777344 28 72.5 28 Z M 72.5 28 "/>
<path style=" stroke:none;fill-rule:nonzero;fill:rgb(22.352941%,76.078433%,84.705883%);fill-opacity:1;" d="M 29.699219 57.699219 L 37.300781 57.699219 L 37.300781 72.300781 L 29.699219 72.300781 Z M 29.699219 57.699219 "/>
<path style=" stroke:none;fill-rule:nonzero;fill:rgb(22.352941%,76.078433%,84.705883%);fill-opacity:1;" d="M 41.699219 51.699219 L 49.300781 51.699219 L 49.300781 72.300781 L 41.699219 72.300781 Z M 41.699219 51.699219 "/>
<path style=" stroke:none;fill-rule:nonzero;fill:rgb(22.352941%,76.078433%,84.705883%);fill-opacity:1;" d="M 53.699219 45.699219 L 61.300781 45.699219 L 61.300781 72.300781 L 53.699219 72.300781 Z M 53.699219 45.699219 "/>
<path style=" stroke:none;fill-rule:nonzero;fill:rgb(22.352941%,76.078433%,84.705883%);fill-opacity:1;" d="M 65.699219 39.699219 L 73.300781 39.699219 L 73.300781 72.300781 L 65.699219 72.300781 Z M 65.699219 39.699219 "/>
<path style=" stroke:none;fill-rule:nonzero;fill:rgb(20.392157%,28.627452%,36.862746%);fill-opacity:1;" d="M 46.5 73 C 46.222656 73 46 72.777344 46 72.5 L 46 59.5 C 46 59.222656 46.222656 59 46.5 59 C 46.777344 59 47 59.222656 47 59.5 L 47 72.5 C 47 72.777344 46.777344 73 46.5 73 Z M 46.5 73 "/>
<path style=" stroke:none;fill-rule:nonzero;fill:rgb(20.392157%,28.627452%,36.862746%);fill-opacity:1;" d="M 68.5 60 C 68.222656 60 68 59.777344 68 59.5 L 68 39.5 C 68 39.222656 68.222656 39 68.5 39 C 68.777344 39 69 39.222656 69 39.5 L 69 59.5 C 69 59.777344 68.777344 60 68.5 60 Z M 68.5 60 "/>
<path style=" stroke:none;fill-rule:nonzero;fill:rgb(20.392157%,28.627452%,36.862746%);fill-opacity:1;" d="M 68.5 66 C 68.222656 66 68 65.777344 68 65.5 L 68 62.5 C 68 62.222656 68.222656 62 68.5 62 C 68.777344 62 69 62.222656 69 62.5 L 69 65.5 C 69 65.777344 68.777344 66 68.5 66 Z M 68.5 66 "/>
<path style=" stroke:none;fill-rule:nonzero;fill:rgb(20.392157%,28.627452%,36.862746%);fill-opacity:1;" d="M 68.5 70 C 68.222656 70 68 69.777344 68 69.5 L 68 67.5 C 68 67.222656 68.222656 67 68.5 67 C 68.777344 67 69 67.222656 69 67.5 L 69 69.5 C 69 69.777344 68.777344 70 68.5 70 Z M 68.5 70 "/>
<path style=" stroke:none;fill-rule:nonzero;fill:rgb(20.392157%,28.627452%,36.862746%);fill-opacity:1;" d="M 46.5 58 C 46.222656 58 46 57.777344 46 57.5 L 46 54.5 C 46 54.222656 46.222656 54 46.5 54 C 46.777344 54 47 54.222656 47 54.5 L 47 57.5 C 47 57.777344 46.777344 58 46.5 58 Z M 46.5 58 "/>
<path style=" stroke:none;fill-rule:nonzero;fill:rgb(20.392157%,28.627452%,36.862746%);fill-opacity:1;" d="M 37.300781 73 L 29.699219 73 C 29.3125 73 29 72.6875 29 72.300781 L 29 57.699219 C 29 57.3125 29.3125 57 29.699219 57 L 37.300781 57 C 37.6875 57 38 57.3125 38 57.699219 L 38 72.300781 C 38 72.6875 37.6875 73 37.300781 73 Z M 30.398438 71.601562 L 36.601562 71.601562 L 36.601562 58.398438 L 30.398438 58.398438 Z M 30.398438 71.601562 "/>
<path style=" stroke:none;fill-rule:nonzero;fill:rgb(20.392157%,28.627452%,36.862746%);fill-opacity:1;" d="M 49.300781 73 L 41.699219 73 C 41.3125 73 41 72.6875 41 72.300781 L 41 51.699219 C 41 51.3125 41.3125 51 41.699219 51 L 49.300781 51 C 49.6875 51 50 51.3125 50 51.699219 L 50 72.300781 C 50 72.6875 49.6875 73 49.300781 73 Z M 42.398438 71.601562 L 48.601562 71.601562 L 48.601562 52.398438 L 42.398438 52.398438 Z M 42.398438 71.601562 "/>
<path style=" stroke:none;fill-rule:nonzero;fill:rgb(20.392157%,28.627452%,36.862746%);fill-opacity:1;" d="M 61.300781 73 L 53.699219 73 C 53.3125 73 53 72.6875 53 72.300781 L 53 45.699219 C 53 45.3125 53.3125 45 53.699219 45 L 61.300781 45 C 61.6875 45 62 45.3125 62 45.699219 L 62 72.300781 C 62 72.6875 61.6875 73 61.300781 73 Z M 54.398438 71.601562 L 60.601562 71.601562 L 60.601562 46.398438 L 54.398438 46.398438 Z M 54.398438 71.601562 "/>
<path style=" stroke:none;fill-rule:nonzero;fill:rgb(20.392157%,28.627452%,36.862746%);fill-opacity:1;" d="M 73.300781 73 L 65.699219 73 C 65.3125 73 65 72.6875 65 72.300781 L 65 39.699219 C 65 39.3125 65.3125 39 65.699219 39 L 73.300781 39 C 73.6875 39 74 39.3125 74 39.699219 L 74 72.300781 C 74 72.6875 73.6875 73 73.300781 73 Z M 66.398438 71.601562 L 72.601562 71.601562 L 72.601562 40.398438 L 66.398438 40.398438 Z M 66.398438 71.601562 "/>
<path style=" stroke:none;fill-rule:nonzero;fill:rgb(92.941177%,96.862745%,96.078432%);fill-opacity:1;" d="M 29 45 C 29 47.761719 31.238281 50 34 50 C 36.761719 50 39 47.761719 39 45 C 39 43.371094 38.207031 41.9375 37 41.023438 L 37 21.738281 C 37 20.226562 35.773438 19 34.261719 19 L 33.738281 19 C 32.226562 19 31 20.226562 31 21.738281 L 31 41.023438 C 29.792969 41.933594 29 43.371094 29 45 Z M 29 45 "/>
<path style=" stroke:none;fill-rule:nonzero;fill:rgb(93.333334%,24.313726%,32.941177%);fill-opacity:1;" d="M 29 45 C 29 47.761719 31.238281 50 34 50 C 36.761719 50 39 47.761719 39 45 C 39 43.371094 38.207031 41.9375 37 41.023438 L 37 31 L 31 31 L 31 41.023438 C 29.792969 41.933594 29 43.371094 29 45 Z M 29 45 "/>
<path style=" stroke:none;fill-rule:nonzero;fill:rgb(20.392157%,28.627452%,36.862746%);fill-opacity:1;" d="M 33.738281 20.398438 L 34.261719 20.398438 C 35 20.398438 35.601562 21 35.601562 21.738281 L 35.601562 41.71875 L 36.15625 42.140625 C 37.074219 42.832031 37.601562 43.875 37.601562 45 C 37.601562 46.984375 35.984375 48.601562 34 48.601562 C 32.015625 48.601562 30.398438 46.984375 30.398438 45 C 30.398438 43.875 30.925781 42.832031 31.84375 42.140625 L 32.398438 41.71875 L 32.398438 21.738281 C 32.398438 21 33 20.398438 33.738281 20.398438 M 33.738281 19 C 32.226562 19 31 20.226562 31 21.738281 L 31 41.023438 C 29.792969 41.933594 29 43.371094 29 45 C 29 47.761719 31.238281 50 34 50 C 36.761719 50 39 47.761719 39 45 C 39 43.371094 38.207031 41.9375 37 41.023438 L 37 21.738281 C 37 20.226562 35.773438 19 34.261719 19 Z M 33.738281 19 "/>
<path style=" stroke:none;fill-rule:nonzero;fill:rgb(20.392157%,28.627452%,36.862746%);fill-opacity:1;" d="M 36 31.5 C 36 31.222656 36.222656 31 36.5 31 L 40.5 31 C 40.777344 31 41 31.222656 41 31.5 C 41 31.777344 40.777344 32 40.5 32 L 36.5 32 C 36.222656 32 36 31.777344 36 31.5 Z M 36 31.5 "/>
<path style=" stroke:none;fill-rule:nonzero;fill:rgb(20.392157%,28.627452%,36.862746%);fill-opacity:1;" d="M 36 22.5 C 36 22.222656 36.222656 22 36.5 22 L 40.5 22 C 40.777344 22 41 22.222656 41 22.5 C 41 22.777344 40.777344 23 40.5 23 L 36.5 23 C 36.222656 23 36 22.777344 36 22.5 Z M 36 22.5 "/>
<path style=" stroke:none;fill-rule:nonzero;fill:rgb(20.392157%,28.627452%,36.862746%);fill-opacity:1;" d="M 36 40.5 C 36 40.222656 36.222656 40 36.5 40 L 40.5 40 C 40.777344 40 41 40.222656 41 40.5 C 41 40.777344 40.777344 41 40.5 41 L 36.5 41 C 36.222656 41 36 40.777344 36 40.5 Z M 36 40.5 "/>
<path style=" stroke:none;fill-rule:nonzero;fill:rgb(20.392157%,28.627452%,36.862746%);fill-opacity:1;" d="M 36 34.5 C 36 34.222656 36.222656 34 36.5 34 L 38.5 34 C 38.777344 34 39 34.222656 39 34.5 C 39 34.777344 38.777344 35 38.5 35 L 36.5 35 C 36.222656 35 36 34.777344 36 34.5 Z M 36 34.5 "/>
<path style=" stroke:none;fill-rule:nonzero;fill:rgb(20.392157%,28.627452%,36.862746%);fill-opacity:1;" d="M 36 37.5 C 36 37.222656 36.222656 37 36.5 37 L 38.5 37 C 38.777344 37 39 37.222656 39 37.5 C 39 37.777344 38.777344 38 38.5 38 L 36.5 38 C 36.222656 38 36 37.777344 36 37.5 Z M 36 37.5 "/>
<path style=" stroke:none;fill-rule:nonzero;fill:rgb(20.392157%,28.627452%,36.862746%);fill-opacity:1;" d="M 36 25.5 C 36 25.222656 36.222656 25 36.5 25 L 38.5 25 C 38.777344 25 39 25.222656 39 25.5 C 39 25.777344 38.777344 26 38.5 26 L 36.5 26 C 36.222656 26 36 25.777344 36 25.5 Z M 36 25.5 "/>
<path style=" stroke:none;fill-rule:nonzero;fill:rgb(20.392157%,28.627452%,36.862746%);fill-opacity:1;" d="M 36 28.5 C 36 28.222656 36.222656 28 36.5 28 L 38.5 28 C 38.777344 28 39 28.222656 39 28.5 C 39 28.777344 38.777344 29 38.5 29 L 36.5 29 C 36.222656 29 36 28.777344 36 28.5 Z M 36 28.5 "/>
<path style=" stroke:none;fill-rule:nonzero;fill:rgb(99.215686%,98.823529%,93.725491%);fill-opacity:1;" d="M 72.5 34.5 L 72.5 35 L 75.5 35 L 75.5 34.5 C 75.5 34.5 79.742188 34.5 81 34.5 C 83.484375 34.5 85.5 32.484375 85.5 30 C 85.5 27.667969 83.71875 25.769531 81.445312 25.546875 C 81.46875 25.363281 81.5 25.1875 81.5 25 C 81.5 22.515625 79.484375 20.5 77 20.5 C 75.5625 20.5 74.296875 21.1875 73.472656 22.234375 C 73.332031 19.601562 71.171875 17.5 68.5 17.5 C 65.738281 17.5 63.5 19.738281 63.5 22.5 C 63.5 22.945312 63.578125 23.371094 63.6875 23.78125 C 63.046875 23.003906 62.085938 22.5 61 22.5 C 59.21875 22.5 57.765625 23.835938 57.546875 25.554688 C 57.363281 25.53125 57.1875 25.5 57 25.5 C 54.515625 25.5 52.5 27.515625 52.5 30 C 52.5 32.484375 54.515625 34.5 57 34.5 C 59.484375 34.5 66.5 34.5 66.5 34.5 Z M 72.5 34.5 "/>
<path style=" stroke:none;fill-rule:nonzero;fill:rgb(20.392157%,28.627452%,36.862746%);fill-opacity:1;" d="M 68.5 17 C 65.46875 17 63 19.46875 63 22.5 C 63 22.515625 63 22.53125 63 22.546875 C 62.398438 22.191406 61.710938 22 61 22 C 59.167969 22 57.589844 23.261719 57.140625 25.003906 C 57.09375 25.003906 57.046875 25 57 25 C 54.242188 25 52 27.242188 52 30 C 52 32.757812 54.242188 35 57 35 L 72.5 35 C 72.777344 35 73 34.777344 73 34.5 C 73 34.222656 72.777344 34 72.5 34 L 57 34 C 54.792969 34 53 32.207031 53 30 C 53 27.792969 54.792969 26 57 26 C 57.117188 26 57.230469 26.015625 57.34375 26.03125 L 57.484375 26.050781 C 57.503906 26.054688 57.523438 26.054688 57.546875 26.054688 C 57.792969 26.054688 58.007812 25.871094 58.039062 25.617188 C 58.230469 24.125 59.503906 23 61 23 C 61.886719 23 62.722656 23.402344 63.300781 24.101562 C 63.398438 24.21875 63.542969 24.28125 63.6875 24.28125 C 63.765625 24.28125 63.84375 24.265625 63.914062 24.226562 C 64.125 24.117188 64.230469 23.878906 64.167969 23.652344 C 64.054688 23.21875 64 22.851562 64 22.5 C 64 20.019531 66.019531 18 68.5 18 C 70.882812 18 72.847656 19.871094 72.972656 22.261719 C 72.984375 22.472656 73.125 22.648438 73.324219 22.714844 C 73.371094 22.730469 73.425781 22.738281 73.476562 22.738281 C 73.625 22.738281 73.769531 22.667969 73.867188 22.546875 C 74.636719 21.5625 75.777344 21 77 21 C 79.207031 21 81 22.792969 81 25 C 81 25.117188 80.984375 25.230469 80.96875 25.34375 L 80.949219 25.484375 C 80.933594 25.617188 80.972656 25.753906 81.054688 25.855469 C 81.140625 25.960938 81.261719 26.027344 81.394531 26.042969 C 83.449219 26.246094 85 27.949219 85 30 C 85 32.207031 83.207031 34 81 34 L 75.5 34 C 75.222656 34 75 34.222656 75 34.5 C 75 34.777344 75.222656 35 75.5 35 L 81 35 C 83.757812 35 86 32.757812 86 30 C 86 27.601562 84.3125 25.585938 81.996094 25.121094 C 82 25.082031 82 25.039062 82 25 C 82 22.242188 79.757812 20 77 20 C 75.824219 20 74.707031 20.414062 73.816406 21.164062 C 73.21875 18.761719 71.054688 17 68.5 17 Z M 68.5 17 "/>
<path style=" stroke:none;fill-rule:nonzero;fill:rgb(20.392157%,28.627452%,36.862746%);fill-opacity:1;" d="M 67 24 C 65.597656 24 64.390625 25 64.085938 26.339844 C 63.71875 26.117188 63.300781 26 62.875 26 C 61.671875 26 60.675781 26.898438 60.523438 28.066406 C 60.320312 28.023438 60.125 28 59.9375 28 C 58.40625 28 57.125 29.199219 57.019531 30.730469 C 57.011719 30.871094 57.113281 30.988281 57.25 31 C 57.257812 31 57.261719 31 57.269531 31 C 57.398438 31 57.507812 30.898438 57.519531 30.769531 C 57.605469 29.496094 58.667969 28.5 59.9375 28.5 C 60.164062 28.5 60.40625 28.542969 60.675781 28.628906 C 60.695312 28.632812 60.71875 28.636719 60.742188 28.636719 C 60.796875 28.636719 60.851562 28.617188 60.898438 28.582031 C 60.960938 28.535156 61 28.453125 61 28.375 C 61 27.339844 61.839844 26.5 62.875 26.5 C 63.320312 26.5 63.761719 26.667969 64.105469 26.972656 C 64.152344 27.015625 64.210938 27.035156 64.269531 27.035156 C 64.304688 27.035156 64.335938 27.03125 64.363281 27.015625 C 64.453125 26.980469 64.511719 26.898438 64.519531 26.804688 C 64.621094 25.511719 65.710938 24.5 67 24.5 C 67.207031 24.5 67.425781 24.535156 67.683594 24.605469 C 67.703125 24.613281 67.730469 24.617188 67.753906 24.617188 C 67.859375 24.617188 67.960938 24.542969 67.992188 24.433594 C 68.027344 24.300781 67.953125 24.164062 67.820312 24.125 C 67.515625 24.039062 67.257812 24 67 24 Z M 67 24 "/>
<path style=" stroke:none;fill-rule:nonzero;fill:rgb(20.392157%,28.627452%,36.862746%);fill-opacity:1;" d="M 80.882812 25.5 C 79.558594 25.5 78.375 26.398438 78.007812 27.683594 C 77.972656 27.816406 78.046875 27.953125 78.179688 27.992188 C 78.203125 27.996094 78.226562 28 78.25 28 C 78.359375 28 78.460938 27.929688 78.488281 27.816406 C 78.796875 26.746094 79.777344 26 80.882812 26 C 81 26 81.113281 26.015625 81.226562 26.027344 C 81.238281 26.03125 81.246094 26.03125 81.261719 26.03125 C 81.382812 26.03125 81.488281 25.941406 81.507812 25.816406 C 81.523438 25.679688 81.429688 25.550781 81.292969 25.535156 C 81.15625 25.515625 81.023438 25.5 80.882812 25.5 Z M 80.882812 25.5 "/>
<path style=" stroke:none;fill-rule:nonzero;fill:rgb(99.215686%,98.823529%,93.725491%);fill-opacity:1;" d="M 32.5 77.5 C 32.5 77.5 34.066406 77.5 36 77.5 C 37.933594 77.5 39.5 75.933594 39.5 74 C 39.5 72.21875 38.164062 70.765625 36.445312 70.546875 C 36.472656 70.367188 36.5 70.1875 36.5 70 C 36.5 68.066406 34.933594 66.5 33 66.5 C 31.96875 66.5 31.050781 66.953125 30.410156 67.664062 C 30.027344 65.855469 28.421875 64.5 26.5 64.5 C 24.289062 64.5 22.5 66.289062 22.5 68.5 C 22.5 68.691406 22.53125 68.875 22.554688 69.058594 C 22.128906 68.714844 21.59375 68.5 21 68.5 C 19.773438 68.5 18.753906 69.386719 18.546875 70.554688 C 18.367188 70.527344 18.1875 70.5 18 70.5 C 16.066406 70.5 14.5 72.066406 14.5 74 C 14.5 75.933594 16.066406 77.5 18 77.5 C 19.933594 77.5 25.5 77.5 25.5 77.5 L 25.5 78 L 32.5 78 Z M 32.5 77.5 "/>
<path style=" stroke:none;fill-rule:nonzero;fill:rgb(20.392157%,28.627452%,36.862746%);fill-opacity:1;" d="M 34.25 73 C 34.113281 73 34 72.886719 34 72.75 C 34 71.527344 34.996094 70.53125 36.21875 70.53125 C 36.253906 70.539062 36.953125 70.53125 37.460938 70.667969 C 37.59375 70.703125 37.675781 70.839844 37.636719 70.972656 C 37.601562 71.109375 37.464844 71.1875 37.332031 71.148438 C 36.886719 71.03125 36.230469 71.03125 36.21875 71.03125 C 35.269531 71.03125 34.5 71.804688 34.5 72.75 C 34.5 72.886719 34.386719 73 34.25 73 Z M 34.25 73 "/>
<path style=" stroke:none;fill-rule:nonzero;fill:rgb(20.392157%,28.627452%,36.862746%);fill-opacity:1;" d="M 28 77.5 C 28 77.777344 27.777344 78 27.5 78 C 27.222656 78 27 77.777344 27 77.5 C 27 77.222656 27.222656 77 27.5 77 C 27.777344 77 28 77.222656 28 77.5 Z M 28 77.5 "/>
<path style=" stroke:none;fill-rule:nonzero;fill:rgb(20.392157%,28.627452%,36.862746%);fill-opacity:1;" d="M 36 78 L 32.5 78 C 32.222656 78 32 77.777344 32 77.5 C 32 77.222656 32.222656 77 32.5 77 L 36 77 C 37.652344 77 39 75.652344 39 74 C 39 72.503906 37.875 71.230469 36.382812 71.039062 C 36.246094 71.023438 36.128906 70.953125 36.046875 70.84375 C 35.964844 70.738281 35.929688 70.601562 35.953125 70.46875 C 35.976562 70.3125 36 70.160156 36 70 C 36 68.347656 34.652344 67 33 67 C 32.148438 67 31.363281 67.355469 30.78125 68 C 30.65625 68.140625 30.460938 68.199219 30.28125 68.148438 C 30.097656 68.097656 29.960938 67.953125 29.921875 67.769531 C 29.578125 66.164062 28.140625 65 26.5 65 C 24.570312 65 23 66.570312 23 68.5 C 23 68.644531 23.019531 68.78125 23.039062 68.917969 C 23.070312 69.121094 22.976562 69.355469 22.800781 69.457031 C 22.621094 69.558594 22.402344 69.574219 22.242188 69.449219 C 21.878906 69.15625 21.449219 69 21 69 C 20.035156 69 19.207031 69.691406 19.035156 70.644531 C 18.988281 70.910156 18.742188 71.089844 18.46875 71.050781 C 18.3125 71.023438 18.160156 71 18 71 C 16.347656 71 15 72.347656 15 74 C 15 75.652344 16.347656 77 18 77 L 25.5 77 C 25.777344 77 26 77.222656 26 77.5 C 26 77.777344 25.777344 78 25.5 78 L 18 78 C 15.792969 78 14 76.207031 14 74 C 14 71.792969 15.792969 70 18 70 C 18.058594 70 18.117188 70.003906 18.175781 70.007812 C 18.589844 68.820312 19.710938 68 21 68 C 21.347656 68 21.6875 68.0625 22.011719 68.179688 C 22.175781 65.847656 24.125 64 26.5 64 C 28.332031 64 29.964844 65.128906 30.652344 66.773438 C 31.332031 66.277344 32.15625 66 33 66 C 35.207031 66 37 67.792969 37 70 C 37 70.046875 37 70.09375 36.996094 70.140625 C 38.738281 70.589844 40 72.167969 40 74 C 40 76.207031 38.207031 78 36 78 Z M 36 78 "/>
<path style=" stroke:none;fill-rule:nonzero;fill:rgb(20.392157%,28.627452%,36.862746%);fill-opacity:1;" d="M 30.5 77 C 30.339844 77 29.660156 77 29.5 77 C 29.222656 77 29 77.222656 29 77.5 C 29 77.777344 29.222656 78 29.5 78 C 29.660156 78 30.339844 78 30.5 78 C 30.777344 78 31 77.777344 31 77.5 C 31 77.222656 30.777344 77 30.5 77 Z M 30.5 77 "/>
</g>
</svg>
