<svg xmlns="http://www.w3.org/2000/svg"  viewBox="0 0 64 64" width="64px" height="64px"><rect width="4" height="20" x="42" y="25" fill="#fcbc04" transform="rotate(-45 44 35)"/><path fill="#e59730" d="M46.456,34.627a2.991,2.991,0,0,1-3.92-.263l-.481-.481a16.416,16.416,0,0,0,1.494-2.162l-5.206-5.206-2.828,2.828L49.657,43.485l2.828-2.828Z"/><rect width="8" height="18" x="48.636" y="34.636" fill="#a1d51c" rx="2" transform="rotate(-45 52.636 43.637)"/><circle cx="29" cy="20" r="17" fill="#f9e109"/><path fill="#fcbc04" d="M34,32A16.986,16.986,0,0,1,19.749,5.749a16.993,16.993,0,1,0,23.5,23.5A16.906,16.906,0,0,1,34,32Z"/><circle cx="29" cy="20" r="13" fill="#57b7eb"/><path fill="#4891d3" d="M38.192,29.192A13,13,0,0,1,19.808,10.808Z"/><path fill="#4891d3" d="M29,7a12.972,12.972,0,0,0-10.561,5.439A12.985,12.985,0,0,1,36.561,30.561,12.991,12.991,0,0,0,29,7Z"/><path fill="#2d72bc" d="M34,31A16.985,16.985,0,0,1,17.046,14.906a13,13,0,0,0,19.123,15.94A17.048,17.048,0,0,1,34,31Z"/><path fill="#7ab92d" d="M59.769,45.112a5.981,5.981,0,0,1-7.84-.526L45.444,38.1l-.586.586a2,2,0,0,0,0,2.829l9.9,9.9a2,2,0,0,0,2.829,0l2.828-2.828a2,2,0,0,0,0-2.829Z"/><g><path fill="#93999a" d="M8,38a1,1,0,0,1-1-1V32a1,1,0,0,1,2,0v5A1,1,0,0,1,8,38Z"/><path fill="#93999a" d="M27.689,26.5a1,1,0,0,1-.753-.341l-4.377-5a1,1,0,0,1,1.5-1.318l4.377,5a1,1,0,0,1-.752,1.659Z"/><path fill="#93999a" d="M29.769,26.155a1,1,0,0,1-.923-1.385l3.461-8.309a1,1,0,0,1,1.846.769l-3.461,8.309A1,1,0,0,1,29.769,26.155Z"/><path fill="#93999a" d="M50.217,24.109A.988.988,0,0,1,49.771,24L35.335,16.786A1,1,0,0,1,36.229,15l14.436,7.217a1,1,0,0,1-.448,1.9Z"/><path fill="#93999a" d="M9.566,29.77a1,1,0,0,1-.618-1.787l10.868-8.539a1,1,0,0,1,1.236,1.573L10.184,29.556A1,1,0,0,1,9.566,29.77Z"/><path fill="#93999a" d="M53.07,23.316a1,1,0,0,1-.842-1.537l4.857-7.633a1,1,0,1,1,1.687,1.075l-4.857,7.633A1,1,0,0,1,53.07,23.316Z"/><circle cx="29" cy="27" r="3" fill="#fcbc04"/><circle cx="22" cy="19" r="3" fill="#fcbc04"/><circle cx="34" cy="15" r="3" fill="#fcbc04"/><circle cx="8" cy="30" r="3" fill="#fcbc04"/><circle cx="52" cy="24" r="3" fill="#fcbc04"/><circle cx="58" cy="14" r="3" fill="#fcbc04"/><path fill="#f9e109" d="M29,24a3,3,0,0,0-2.73,1.77,2.989,2.989,0,0,1,3.96,3.96A3,3,0,0,0,29,24Z"/><path fill="#f9e109" d="M22,16a3,3,0,0,0-2.73,1.77,2.989,2.989,0,0,1,3.96,3.96A3,3,0,0,0,22,16Z"/><path fill="#f9e109" d="M34,12a3,3,0,0,0-2.73,1.77,2.989,2.989,0,0,1,3.96,3.96A3,3,0,0,0,34,12Z"/><path fill="#f9e109" d="M8,27a3,3,0,0,0-2.73,1.77,2.989,2.989,0,0,1,3.96,3.96A3,3,0,0,0,8,27Z"/><path fill="#f9e109" d="M52,21a3,3,0,0,0-2.73,1.77,2.989,2.989,0,0,1,3.96,3.96A3,3,0,0,0,52,21Z"/><path fill="#f9e109" d="M58,11a3,3,0,0,0-2.73,1.77,2.989,2.989,0,0,1,3.96,3.96A3,3,0,0,0,58,11Z"/></g><g><rect width="28" height="8" x="3" y="45" fill="#d0d8da"/><path fill="#93999a" d="M7,45H3v8H31V49H11A4,4,0,0,1,7,45Z"/><circle cx="18" cy="49" r="1" fill="#57b7eb"/><circle cx="22" cy="49" r="1" fill="#57b7eb"/><circle cx="26" cy="49" r="1" fill="#57b7eb"/><path fill="#57b7eb" d="M13,50H7a1,1,0,0,1,0-2h6a1,1,0,0,1,0,2Z"/><path fill="#4891d3" d="M18,50a1,1,0,0,0,1-1H17A1,1,0,0,0,18,50Z"/><path fill="#4891d3" d="M22,50a1,1,0,0,0,1-1H21A1,1,0,0,0,22,50Z"/><path fill="#4891d3" d="M26,50a1,1,0,0,0,1-1H25A1,1,0,0,0,26,50Z"/><path fill="#4891d3" d="M6,49a1,1,0,0,0,1,1h6a1,1,0,0,0,1-1H11a3.963,3.963,0,0,1-2.62-1H7A1,1,0,0,0,6,49Z"/></g><g><rect width="28" height="8" x="3" y="53" fill="#d0d8da"/><path fill="#93999a" d="M7,53H3v8H31V57H11A4,4,0,0,1,7,53Z"/><circle cx="18" cy="57" r="1" fill="#57b7eb"/><circle cx="22" cy="57" r="1" fill="#57b7eb"/><circle cx="26" cy="57" r="1" fill="#57b7eb"/><path fill="#57b7eb" d="M13,58H7a1,1,0,0,1,0-2h6a1,1,0,0,1,0,2Z"/><path fill="#4891d3" d="M18,58a1,1,0,0,0,1-1H17A1,1,0,0,0,18,58Z"/><path fill="#4891d3" d="M22,58a1,1,0,0,0,1-1H21A1,1,0,0,0,22,58Z"/><path fill="#4891d3" d="M26,58a1,1,0,0,0,1-1H25A1,1,0,0,0,26,58Z"/><path fill="#4891d3" d="M6,57a1,1,0,0,0,1,1h6a1,1,0,0,0,1-1H11a3.963,3.963,0,0,1-2.62-1H7A1,1,0,0,0,6,57Z"/></g><g><rect width="28" height="8" x="3" y="37" fill="#d0d8da"/><path fill="#93999a" d="M7,37H3v8H31V41H11A4,4,0,0,1,7,37Z"/><circle cx="18" cy="41" r="1" fill="#57b7eb"/><circle cx="22" cy="41" r="1" fill="#57b7eb"/><circle cx="26" cy="41" r="1" fill="#57b7eb"/><path fill="#57b7eb" d="M13,42H7a1,1,0,0,1,0-2h6a1,1,0,0,1,0,2Z"/><path fill="#4891d3" d="M18,42a1,1,0,0,0,1-1H17A1,1,0,0,0,18,42Z"/><path fill="#4891d3" d="M22,42a1,1,0,0,0,1-1H21A1,1,0,0,0,22,42Z"/><path fill="#4891d3" d="M26,42a1,1,0,0,0,1-1H25A1,1,0,0,0,26,42Z"/><path fill="#4891d3" d="M6,41a1,1,0,0,0,1,1h6a1,1,0,0,0,1-1H11a3.963,3.963,0,0,1-2.62-1H7A1,1,0,0,0,6,41Z"/></g><path fill="#f9e109" d="M29,3A17,17,0,1,0,46,20,17,17,0,0,0,29,3Zm0,30A13,13,0,1,1,42,20,13,13,0,0,1,29,33Z"/><path fill="#fcbc04" d="M36.155,30.849a13,13,0,0,1-19.11-15.958C17.03,14.594,17,14.3,17,14a16.9,16.9,0,0,1,1.8-7.575A16.987,16.987,0,1,0,44.2,27.575,16.9,16.9,0,0,1,36.155,30.849Z"/></svg>